<svg width="149" height="126" viewBox="0 0 149 126" fill="none" xmlns="http://www.w3.org/2000/svg">
<g opacity="0.2">
<path d="M89.4246 1.84918C90.4196 0.854208 24.8895 26.8617 -8 39.9899L96.0578 -3.54028L83.6206 12.2135L149.123 -3.54028L67.8668 22.5778C74.6382 16.0828 88.4297 2.84416 89.4246 1.84918Z" fill="#E40606" stroke="#E40606" stroke-width="0.829146"/>
<path d="M64.9648 71.083L-4.26886 109.638V100.518L64.9648 71.083L13.1432 135.342L150.781 53.6709L61.6482 138.866L97.3015 132.854L113.47 137.829L77.8166 153.998C85.0025 149.852 99.5402 141.312 100.203 140.317C100.867 139.322 65.3794 147.917 47.5527 152.339L61.6482 138.866L150.781 53.6709L13.1432 135.342L64.9648 71.083Z" fill="#E40606"/>
<path d="M64.9648 71.083L-4.26886 109.638V100.518L64.9648 71.083ZM64.9648 71.083L13.1432 135.342L150.781 53.6709L61.6482 138.866M61.6482 138.866L47.5527 152.339C65.3794 147.917 100.867 139.322 100.204 140.317C99.5402 141.312 85.0025 149.852 77.8166 153.998L113.47 137.829L97.3015 132.854L61.6482 138.866Z" stroke="#E40606" stroke-width="0.829146"/>
<path d="M2.77887 71.4974C4.1055 71.8291 87.9045 40.1281 127.565 25.0652C124.94 27.1381 120.269 31.2009 122.59 30.8693C124.912 30.5376 146.497 19.9522 157 14.7009" stroke="#E40606" stroke-width="1.65829"/>
</g>
</svg>
