<svg width="309" height="391" viewBox="0 0 309 391" fill="none" xmlns="http://www.w3.org/2000/svg">
<g opacity="0.2">
<path d="M186.564 64.1275C188.701 61.9899 47.9176 117.864 -22.7415 146.068L200.814 52.5488L174.094 86.3939L314.819 52.5488L140.249 108.66C154.797 94.7068 184.426 66.265 186.564 64.1275Z" fill="#E40606" stroke="#E40606" stroke-width="0.829146"/>
<path d="M134.015 212.868L-14.7256 295.699V276.105L134.015 212.868L22.6821 350.92L318.381 175.46L126.889 358.493L203.486 345.576L238.222 356.264L161.625 391C177.063 382.093 208.296 363.746 209.721 361.608C211.146 359.471 134.905 377.937 96.607 387.437L126.889 358.493L318.381 175.46L22.6821 350.92L134.015 212.868Z" fill="#E40606"/>
<path d="M134.015 212.868L-14.7256 295.699V276.105L134.015 212.868ZM134.015 212.868L22.6821 350.92L318.381 175.46L126.889 358.493M126.889 358.493L96.607 387.437C134.905 377.937 211.146 359.471 209.721 361.608C208.296 363.746 177.063 382.093 161.625 391L238.222 356.264L203.486 345.576L126.889 358.493Z" stroke="#E40606" stroke-width="0.829146"/>
<path d="M0.415527 213.758C3.26564 214.471 183.298 146.365 268.504 114.004C262.863 118.458 252.829 127.186 257.816 126.474C262.804 125.761 309.178 103.019 331.741 91.7378" stroke="#E40606" stroke-width="1.65829"/>
<path d="M-0.474854 50.7676L102.842 0" stroke="#E40606" stroke-width="1.65829"/>
</g>
</svg>
